<svg width="45" height="41" viewBox="0 0 45 41" fill="none" xmlns="http://www.w3.org/2000/svg">
<path d="M22.5 28.035C27.1944 28.035 31 24.6863 31 20.5554C31 16.4244 27.1944 13.0757 22.5 13.0757C17.8056 13.0757 14 16.4244 14 20.5554C14 24.6863 17.8056 28.035 22.5 28.035Z" stroke="white" stroke-width="4" stroke-linecap="round" stroke-linejoin="round"/>
<path d="M30.7 13.1742V22.3992C30.7 23.8671 31.3479 25.275 32.5013 26.313C33.6546 27.351 35.2189 27.9341 36.85 27.9341C38.4811 27.9341 40.0454 27.351 41.1987 26.313C42.3521 25.275 43 23.8671 43 22.3992V20.5542C42.9997 16.3901 41.4343 12.3486 38.5582 9.08673C35.6822 5.8249 31.6646 3.5346 27.1589 2.58826C22.6532 1.64191 17.9243 2.09518 13.7411 3.87434C9.55788 5.65351 6.16643 8.65394 4.1182 12.3878C2.06996 16.1216 1.4854 20.3692 2.45956 24.4399C3.43373 28.5107 5.90932 32.1651 9.48381 34.809C13.0583 37.453 17.5214 38.9309 22.1476 39.0025C26.7737 39.0741 31.2906 37.7351 34.964 35.2034" stroke="white" stroke-width="4" stroke-linecap="round" stroke-linejoin="round"/>
</svg>
