<svg width="41" height="41" viewBox="0 0 41 41" fill="none" xmlns="http://www.w3.org/2000/svg">
<path d="M29.4584 2.28369H11.5417C6.59416 2.28369 2.58337 6.28361 2.58337 11.2178V29.0859C2.58337 34.02 6.59416 38.0199 11.5417 38.0199H29.4584C34.4059 38.0199 38.4167 34.02 38.4167 29.0859V11.2178C38.4167 6.28361 34.4059 2.28369 29.4584 2.28369Z" stroke="white" stroke-width="4" stroke-linecap="round" stroke-linejoin="round"/>
<path d="M27.6667 19.0261C27.8878 20.5132 27.6331 22.0319 26.9389 23.3663C26.2446 24.7007 25.1461 25.7828 23.7996 26.4587C22.4532 27.1346 20.9273 27.3698 19.439 27.131C17.9507 26.8921 16.5759 26.1914 15.51 25.1284C14.4441 24.0654 13.7414 22.6942 13.5019 21.21C13.2624 19.7258 13.4983 18.204 14.176 16.8612C14.8538 15.5183 15.9388 14.4228 17.2768 13.7304C18.6148 13.0381 20.1377 12.784 21.6288 13.0046C23.1498 13.2295 24.5579 13.9363 25.6452 15.0206C26.7324 16.1049 27.4412 17.5093 27.6667 19.0261Z" stroke="white" stroke-width="4" stroke-linecap="round" stroke-linejoin="round"/>
<path d="M30.3541 10.3242H30.3725" stroke="white" stroke-width="4" stroke-linecap="round" stroke-linejoin="round"/>
</svg>
