<svg width="42" height="37" viewBox="0 0 42 37" fill="none" xmlns="http://www.w3.org/2000/svg">
<path d="M39.9999 17.9752C40.0072 20.3153 39.3562 22.6237 38.0999 24.7125C36.6104 27.2154 34.3205 29.3207 31.4868 30.7924C28.653 32.2642 25.3874 33.0443 22.0555 33.0454C19.2691 33.0515 16.5204 32.5047 14.0333 31.4497L2 34.8183L6.01111 24.7125C4.75485 22.6237 4.10384 20.3153 4.11111 17.9752C4.1124 15.1771 5.04129 12.4345 6.79373 10.0546C8.54618 7.67478 11.053 5.75168 14.0333 4.50074C16.5204 3.44571 19.2691 2.89898 22.0555 2.90508H23.1111C27.5114 3.10896 31.6675 4.66875 34.7837 7.28581C37.8999 9.90287 39.7572 13.3933 39.9999 17.0887V17.9752Z" stroke="white" stroke-width="4" stroke-linecap="round" stroke-linejoin="round"/>
</svg>
