<svg width="37" height="48" viewBox="0 0 37 48" fill="none" xmlns="http://www.w3.org/2000/svg">
<path d="M34.9866 19.9807C34.9866 33.7129 18.5105 45.4834 18.5105 45.4834C18.5105 45.4834 2.03439 33.7129 2.03439 19.9807C2.03439 15.2981 3.77026 10.8073 6.86013 7.49619C9.95 4.1851 14.1408 2.32495 18.5105 2.32495C22.8802 2.32495 27.071 4.1851 30.1609 7.49619C33.2507 10.8073 34.9866 15.2981 34.9866 19.9807Z" stroke="white" stroke-width="4" stroke-linecap="round" stroke-linejoin="round"/>
<path d="M18.5105 25.8659C21.5437 25.8659 24.0025 23.231 24.0025 19.9807C24.0025 16.7304 21.5437 14.0955 18.5105 14.0955C15.4773 14.0955 13.0185 16.7304 13.0185 19.9807C13.0185 23.231 15.4773 25.8659 18.5105 25.8659Z" stroke="white" stroke-width="4" stroke-linecap="round" stroke-linejoin="round"/>
</svg>
